<svg version="1.1" xmlns="http://www.w3.org/2000/svg" viewBox="0 0 763.0370009903797 1077.742822235474" width="763.0370009903797" height="1077.742822235474">
  <!-- svg-source:excalidraw -->
  
  <defs>
    <style>
      @font-face {
        font-family: "Virgil";
        src: url("https://excalidraw.com/Virgil.woff2");
      }
      @font-face {
        font-family: "Cascadia";
        src: url("https://excalidraw.com/Cascadia.woff2");
      }
    </style>
  </defs>
  <rect x="0" y="0" width="763.0370009903797" height="1077.742822235474" fill="#ffffff"></rect><g stroke-linecap="round" transform="translate(182.85678968767184 10) rotate(0 68.49998474121094 33.500022888183594)"><path d="M89.52 1.49 C100.17 2.72, 111.88 6.31, 119.67 10.49 C127.45 14.67, 134.06 21.14, 136.23 26.58 C138.4 32.02, 136.24 37.88, 132.68 43.13 C129.12 48.38, 123.3 54.1, 114.87 58.09 C106.44 62.08, 93.42 65.73, 82.09 67.07 C70.76 68.41, 57.58 67.94, 46.88 66.14 C36.18 64.34, 25.62 60.45, 17.9 56.26 C10.19 52.07, 2.87 46.43, 0.6 40.99 C-1.67 35.54, 0.69 29.13, 4.28 23.59 C7.87 18.06, 13.74 11.67, 22.12 7.78 C30.5 3.89, 40.92 0.77, 54.55 0.25 C68.18 -0.26, 93.79 3.1, 103.91 4.69 C114.03 6.27, 115.72 9.2, 115.25 9.77 M99.34 3.76 C109.6 5.43, 119.09 8.9, 125.42 13.69 C131.75 18.47, 136.7 26.92, 137.33 32.47 C137.97 38.02, 134.41 42.13, 129.22 47.01 C124.03 51.88, 115.8 58.62, 106.22 61.7 C96.63 64.77, 83.18 65, 71.69 65.46 C60.2 65.91, 47.37 66.81, 37.29 64.43 C27.21 62.05, 17.19 55.87, 11.23 51.15 C5.27 46.44, 2.1 41.53, 1.53 36.13 C0.95 30.72, 3.19 23.78, 7.8 18.74 C12.42 13.7, 19.74 8.93, 29.2 5.9 C38.66 2.87, 52.95 1.12, 64.56 0.57 C76.17 0.03, 93.11 1.83, 98.87 2.64 C104.63 3.45, 99.47 4.86, 99.1 5.44" stroke="#364fc7" stroke-width="1" fill="none"></path></g><g transform="translate(214.3568049464609 24.999977111816406) rotate(0 40.5 17.5)"><text x="0" y="25" font-family="Virgil, Segoe UI Emoji" font-size="28px" fill="#364fc7" text-anchor="start" style="white-space: pre;" direction="ltr">Start</text></g><g stroke-linecap="round"><g transform="translate(323.8568507228281 43.999977111816406) rotate(0 22.107132697419615 26.18157394101729)"><path d="M0 0 C0 0, 0 0, 0 0 M0 0 C0 0, 0 0, 0 0 M1.13 1.03 C12.06 1.13, 25.91 2.63, 42.33 0.87 M-0.29 0.19 C15.12 0.57, 31.36 -0.45, 42.35 1.84 M40.47 -0.75 C41.13 15.17, 41.35 26.69, 44.5 53.11 M42.81 0.79 C41.41 21.22, 42.6 40.63, 42.68 50.79" stroke="#364fc7" stroke-width="1" fill="none"></path></g><g transform="translate(323.8568507228281 43.999977111816406) rotate(0 22.107132697419615 26.18157394101729)"><path d="M32.26 26.59 C37.16 35.62, 40.92 43.5, 43.7 49.21 M32.72 26.48 C36.77 34.56, 38.44 40.34, 43.46 51.7" stroke="#364fc7" stroke-width="1" fill="none"></path></g><g transform="translate(323.8568507228281 43.999977111816406) rotate(0 22.107132697419615 26.18157394101729)"><path d="M49.53 26.18 C49.1 35.45, 47.54 43.45, 43.7 49.21 M49.99 26.07 C49.25 34.12, 46.13 40, 43.46 51.7" stroke="#364fc7" stroke-width="1" fill="none"></path></g></g><g stroke-linecap="round" transform="translate(264.85691175798434 109.99996185302734) rotate(0 102.99995422363281 99.5000648498535)"><path d="M-1.48 0.87 C53.21 -0.07, 104.52 -0.66, 206.63 -0.48 M0.8 0.72 C43.49 0.76, 84.94 0.46, 206.61 0.11 M205.94 -0.21 C204.72 65.85, 205.21 130.6, 206.11 198.78 M205.45 -0.59 C203.88 42.71, 205.13 83.2, 205.34 199.33 M207.18 198.06 C153.71 196.35, 101.17 196.97, -1.74 199.89 M206.14 198.34 C137.03 200.39, 66.82 200.75, 0.69 198.87 M-1.26 200.19 C-0.65 137.85, -1.26 78.7, 0.52 -1.72 M0.89 199.21 C-0.4 159.78, 0.5 119.85, -0.52 -0.68" stroke="#364fc7" stroke-width="1" fill="none"></path></g><g transform="translate(306.60686598161715 123.75003814697266) rotate(0 64 17.5)"><text x="0" y="25" font-family="Virgil, Segoe UI Emoji" font-size="28px" fill="#000000" text-anchor="start" style="white-space: pre;" direction="ltr">Initiation</text></g><g transform="translate(322.8568278346445 222.00000762939453) rotate(0 65.5 12.5)"><text x="0" y="18" font-family="Virgil, Segoe UI Emoji" font-size="20px" fill="#364fc7" text-anchor="start" style="white-space: pre;" direction="ltr">User Profiles</text></g><g transform="translate(388.8568697963144 254.75021362304688) rotate(0 29 12.5)"><text x="0" y="18" font-family="Virgil, Segoe UI Emoji" font-size="20px" fill="#c92a2a" text-anchor="start" style="white-space: pre;" direction="ltr">Goals</text></g><g transform="translate(290.6068736110117 182.5000762939453) rotate(0 81 12.5)"><text x="0" y="18" font-family="Virgil, Segoe UI Emoji" font-size="20px" fill="#364fc7" text-anchor="start" style="white-space: pre;" direction="ltr">Brand Attribute</text></g><g stroke-linecap="round"><g transform="translate(264.8568736110117 171.0000228881836) rotate(0 101.87765456968452 -0.881942925546042)"><path d="M-0.08 -0.28 C34.28 -0.48, 171.01 -1.22, 205.33 -1.2 M-1.58 -1.47 C32.73 -1.58, 170.04 -0.71, 204.56 -0.29" stroke="#c92a2a" stroke-width="1" fill="none"></path></g></g><g stroke-linecap="round" transform="translate(520.606928924122 113.24995040893555) rotate(0 114.49996948242188 108.00008773803711)"><path d="M1.37 0.16 C67.78 -2.65, 131.82 -1.72, 229.51 -0.56 M-0.27 0.08 C57.16 0.32, 113.36 0.12, 229.54 -0.13 M230.1 1.2 C230.16 67.72, 229.4 139.36, 229.08 217.56 M228.18 0.13 C228.92 45.63, 229.85 89.63, 228.81 216.67 M227.7 214.63 C139.37 215.78, 48.61 218.46, 1.35 215.45 M228.47 215.53 C151.17 217.58, 74.18 217.15, 0.5 216.66 M1.51 217.36 C-0.22 130.18, 1.94 46.52, 0.51 -1.61 M0.4 216.29 C-1.93 162.2, -2.07 108.83, -0.58 -0.15" stroke="#364fc7" stroke-width="1" fill="none"></path></g><g transform="translate(574.356928924122 125.99985122680664) rotate(0 62.5 17.5)"><text x="0" y="25" font-family="Virgil, Segoe UI Emoji" font-size="28px" fill="#000000" text-anchor="start" style="white-space: pre;" direction="ltr">Research</text></g><g transform="translate(543.6068068538095 217.2498893737793) rotate(0 90 12.5)"><text x="0" y="18" font-family="Virgil, Segoe UI Emoji" font-size="20px" fill="#364fc7" text-anchor="start" style="white-space: pre;" direction="ltr">Review user needs</text></g><g transform="translate(542.3568373713877 182.74995803833008) rotate(0 51.5 12.5)"><text x="0" y="18" font-family="Virgil, Segoe UI Emoji" font-size="20px" fill="#364fc7" text-anchor="start" style="white-space: pre;" direction="ltr">Site audit</text></g><g stroke-linecap="round"><g transform="translate(520.6068907771494 174.2500114440918) rotate(0 113.79830049797897 0.05580574200487831)"><path d="M-0.76 -0.51 C37.14 -0.22, 190.33 0.2, 228.36 0.61 M1.04 -1.83 C38.73 -1.26, 190.06 1.62, 227.6 1.94" stroke="#c92a2a" stroke-width="1" fill="none"></path></g></g><g transform="translate(543.8567648921396 250.50006866455078) rotate(0 100 12.5)"><text x="0" y="18" font-family="Virgil, Segoe UI Emoji" font-size="20px" fill="#364fc7" text-anchor="start" style="white-space: pre;" direction="ltr">Create user stories</text></g><g transform="translate(549.106856444874 285.50016021728516) rotate(0 81.5 12.5)"><text x="0" y="18" font-family="Virgil, Segoe UI Emoji" font-size="20px" fill="#c92a2a" text-anchor="start" style="white-space: pre;" direction="ltr">Create site map</text></g><g stroke-linecap="round"><g transform="translate(473.8568411860849 149.00009155273438) rotate(0 21.518411151706232 0.4856950596854688)"><path d="M0.97 0.76 C8.28 0.91, 36.07 1.5, 43.02 1.19 M0.01 0.11 C7.33 -0.06, 35.57 -0.23, 42.61 -0.31" stroke="#000000" stroke-width="1" fill="none"></path></g><g transform="translate(473.8568411860849 149.00009155273438) rotate(0 21.518411151706232 0.4856950596854688)"><path d="M24.2 8.75 C29.44 6.31, 30.18 2.32, 41.03 -2.12 M22.46 7.16 C28.32 5.14, 31.88 2.94, 43.4 0.16" stroke="#000000" stroke-width="1" fill="none"></path></g><g transform="translate(473.8568411860849 149.00009155273438) rotate(0 21.518411151706232 0.4856950596854688)"><path d="M24.08 -5.62 C29.38 -4.75, 30.15 -5.43, 41.03 -2.12 M22.34 -7.2 C28.13 -6, 31.71 -4.98, 43.4 0.16" stroke="#000000" stroke-width="1" fill="none"></path></g></g><g stroke-linecap="round"><g transform="translate(517.856856444874 330.0000762939453) rotate(0 -77.34050175826997 26.69205956440419)"><path d="M0.91 -0.55 C-57.79 1.13, -117.86 1.7, -154.14 1.18 M-0.69 0.6 C-37.45 -0.11, -74.02 0.19, -155.28 0.07 M-154.89 2.19 C-155.7 16.63, -155.04 33.71, -154.71 52.33 M-155.57 1.57 C-154.93 16.77, -155.14 30.77, -155.59 53.93" stroke="#000000" stroke-width="1" fill="none"></path></g><g transform="translate(517.856856444874 330.0000762939453) rotate(0 -77.34050175826997 26.69205956440419)"><path d="M-163.15 28.8 C-159.52 38.9, -157.29 48.42, -154.23 54.11 M-164.74 29.94 C-162.21 34.65, -159.26 40.64, -155.37 53" stroke="#000000" stroke-width="1" fill="none"></path></g><g transform="translate(517.856856444874 330.0000762939453) rotate(0 -77.34050175826997 26.69205956440419)"><path d="M-145.37 29.11 C-148.5 39.15, -153.02 48.56, -154.23 54.11 M-146.96 30.25 C-148.71 34.91, -150.05 40.82, -155.37 53" stroke="#000000" stroke-width="1" fill="none"></path></g></g><g stroke-linecap="round" transform="translate(264.8568640742685 383.416748046875) rotate(0 48.49998474121094 107.5)"><path d="M-0.15 -0.32 C25.2 -1.55, 47.73 1.11, 98.99 0.9 M0.3 0.01 C22.33 -0.35, 42.9 -0.03, 97.59 0.16 M97.61 1.72 C95.54 50.27, 96.94 102.1, 98.5 215.96 M97.64 -0.11 C96.09 53.13, 95.15 106.73, 97.64 214.28 M98.27 216.08 C69.32 213.98, 42.82 217.15, -0.03 213.24 M96.09 214.36 C78.11 214.43, 56.89 214.82, -0.63 215.71 M1.03 214.89 C2.81 167.96, -0.23 116.84, -1.52 -1.65 M-0.49 214.34 C-1.43 136.53, -1.21 57.17, 0.52 0.52" stroke="#000000" stroke-width="1" fill="none"></path></g><g transform="translate(238.86330830298607 441.4153732249574) rotate(269.2257878163034 73.44412562674484 34.31968487231067)"><text x="0" y="23.319684872310667" font-family="Virgil, Segoe UI Emoji" font-size="27.455747897848532px" fill="#5f3dc4" text-anchor="start" style="white-space: pre;" direction="ltr">Generating</text><text x="0" y="57.639369744621334" font-family="Virgil, Segoe UI Emoji" font-size="27.455747897848532px" fill="#5f3dc4" text-anchor="start" style="white-space: pre;" direction="ltr">Wireframes</text></g><g stroke-linecap="round" transform="translate(300.85684881547945 565.4167175292969) rotate(0 10.499992370605469 10.499992370605469)"><path d="M15.19 1.06 C17.2 2.23, 18.75 5.32, 19.61 7.45 C20.47 9.58, 20.78 11.8, 20.34 13.84 C19.9 15.87, 18.89 18.4, 16.98 19.65 C15.08 20.9, 11.39 21.82, 8.91 21.32 C6.43 20.81, 3.68 18.46, 2.1 16.64 C0.53 14.81, -0.39 12.36, -0.54 10.36 C-0.7 8.36, -0.25 6.23, 1.17 4.62 C2.58 3, 5.5 1.29, 7.96 0.68 C10.41 0.07, 14.41 0.84, 15.9 0.93 C17.4 1.02, 16.91 0.98, 16.92 1.24 M6.08 0.1 C7.76 -0.66, 9.82 -0.34, 11.99 0.61 C14.17 1.55, 17.74 3.94, 19.11 5.77 C20.48 7.6, 20.31 9.68, 20.23 11.59 C20.15 13.49, 19.96 15.78, 18.62 17.2 C17.28 18.62, 14.7 19.59, 12.19 20.11 C9.68 20.64, 5.53 21.73, 3.58 20.34 C1.63 18.95, 0.93 14.25, 0.5 11.75 C0.07 9.26, 0.03 7.2, 1.02 5.38 C2.01 3.56, 5.41 1.7, 6.44 0.82 C7.47 -0.07, 7.34 -0.28, 7.19 0.08" stroke="#5c940d" stroke-width="1" fill="none"></path></g><g stroke-linecap="round" transform="translate(307.76746181855424 571.7538486125845) rotate(0 3.5106585722163004 4.121197762785556)"><path d="M3.04 -0.55 C3.66 -1.02, 2.32 1.34, 3.05 1.86 C3.79 2.38, 6.7 2.59, 7.42 2.58 C8.14 2.56, 7.3 1.39, 7.39 1.78 C7.49 2.17, 8.12 4.08, 8 4.94 C7.88 5.8, 7.41 6.37, 6.68 6.94 C5.95 7.51, 4.78 8.26, 3.62 8.34 C2.46 8.42, 0.58 8.17, -0.26 7.42 C-1.11 6.66, -1.86 4.93, -1.47 3.81 C-1.08 2.69, 0.98 0.99, 2.08 0.69 C3.17 0.39, 5.18 1.99, 5.07 1.99 M3.93 -1.67 C4.8 -2.48, 4.26 -3.08, 4.64 -1.94 C5.02 -0.8, 6.27 4.08, 6.2 5.15 C6.13 6.23, 4.79 3.92, 4.21 4.49 C3.63 5.07, 3.16 8.05, 2.73 8.62 C2.3 9.19, 1.82 8.59, 1.64 7.9 C1.47 7.21, 2.4 5.15, 1.69 4.48 C0.97 3.82, -2.35 4.61, -2.64 3.9 C-2.93 3.19, -0.63 0.36, -0.03 0.21 C0.57 0.06, 0.07 3.44, 0.96 2.99 C1.84 2.54, 4.91 -2.55, 5.3 -2.5" stroke="none" stroke-width="0" fill="#40c057"></path><path d="M7.67 -0.37 C8.15 0.36, 7.28 3.97, 6.74 5.19 C6.2 6.41, 4.69 6.55, 4.45 6.96 C4.2 7.37, 5.83 7.64, 5.29 7.66 C4.75 7.68, 1.84 7.35, 1.2 7.06 C0.55 6.78, 1.88 6.85, 1.42 5.95 C0.96 5.06, -1.66 2.79, -1.58 1.69 C-1.5 0.6, 0.78 -0.15, 1.88 -0.63 C2.99 -1.11, 4.01 -2.3, 5.05 -1.18 C6.08 -0.07, 8.55 4.63, 8.1 6.08 C7.65 7.52, 2.96 7.4, 2.36 7.48 M-1.17 2.95 C-1.02 2.5, 1.04 -0.19, 2.35 -0.51 C3.65 -0.83, 5.91 0.86, 6.64 1.01 C7.37 1.16, 6.24 -0.76, 6.71 0.36 C7.18 1.49, 10.01 6.69, 9.47 7.78 C8.94 8.87, 5.02 7.03, 3.5 6.92 C1.98 6.8, 1.33 7.37, 0.36 7.07 C-0.61 6.77, -2.6 6.1, -2.3 5.11 C-2.01 4.13, 2.03 1.72, 2.11 1.13 C2.2 0.54, -1.39 1.87, -1.79 1.56 C-2.19 1.26, -0.88 -0.7, -0.27 -0.69" stroke="#5c940d" stroke-width="1" fill="none"></path></g><g stroke-linecap="round"><g transform="translate(308.68329389498535 577.859333680586) rotate(0 -38.32539671449604 12.787326995269083)"><path d="M3.17 -3.38 C-30.62 13.4, -63.84 22.12, -76.6 26.67 M0.24 -1.74 C-22.2 8.48, -43.08 16.61, -79.82 28.96 M-79.75 28.25 C-77.75 27.21, -75.75 25.03, -72.61 24.56 M-78.65 27.06 C-76.58 27.21, -75.92 25.91, -73.76 24.77" stroke="#5c940d" stroke-width="1" fill="none"></path></g><g transform="translate(308.68329389498535 577.859333680586) rotate(0 -38.32539671449604 12.787326995269083)"><path d="M-75.09 26.61 C-74.95 26.58, -74.73 25.41, -73.47 24.63 M-75.52 26.85 C-75.24 26.51, -74.78 26.01, -73.94 24.96" stroke="#5c940d" stroke-width="1" fill="none"></path></g><g transform="translate(308.68329389498535 577.859333680586) rotate(0 -38.32539671449604 12.787326995269083)"><path d="M-76.17 24.91 C-75.62 25.52, -74.99 25.01, -73.47 24.63 M-76.6 25.15 C-76.05 25.24, -75.3 25.2, -73.94 24.96" stroke="#5c940d" stroke-width="1" fill="none"></path></g></g><g transform="translate(102.14899270801413 595.9829254176018) rotate(0 58.5 12.5)"><text x="0" y="18" font-family="Virgil, Segoe UI Emoji" font-size="20px" fill="#5c940d" text-anchor="start" style="white-space: pre;" direction="ltr">Checkpoint 1</text></g><g stroke-linecap="round" transform="translate(91.54713124904492 585.6743265609894) rotate(0 68.07616200180303 23.200838600290155)"><path d="M11.6 0 M11.6 0 C37.21 -2.39, 68.48 -0.54, 124.55 0 M11.6 0 C49.37 1.18, 91.92 -1.38, 124.55 0 M124.55 0 C128.57 -3.39, 135.48 5.23, 136.15 11.6 M124.55 0 C136.82 3.77, 135.95 2.11, 136.15 11.6 M136.15 11.6 C133 23.88, 137.17 29.79, 136.15 34.8 M136.15 11.6 C134.21 17.64, 137.67 25.5, 136.15 34.8 M136.15 34.8 C139.68 42.83, 129.63 46.65, 124.55 46.4 M136.15 34.8 C133.96 38.05, 129.23 49.82, 124.55 46.4 M124.55 46.4 C86.81 45.3, 45.32 42.32, 11.6 46.4 M124.55 46.4 C91.6 46.98, 58.78 47.85, 11.6 46.4 M11.6 46.4 C6.72 45.76, 2.38 43.3, 0 34.8 M11.6 46.4 C-0.16 46.56, 1.6 38.93, 0 34.8 M0 34.8 C-3.49 27.33, -2.99 21.43, 0 11.6 M0 34.8 C0.19 31.95, 0.18 24.19, 0 11.6 M0 11.6 C2.28 4.2, 2.76 -1.11, 11.6 0 M0 11.6 C2.65 6.84, -0.7 0.33, 11.6 0" stroke="#5c940d" stroke-width="1" fill="none"></path></g><g stroke-linecap="round"><g transform="translate(312.577338120572 595.8857223579564) rotate(0 1.5756728684445989 35.45093255930993)"><path d="M-0.73 2.06 C-0.75 26.76, 4.03 49.14, 3.25 72.18 M1.1 -1.61 C2.97 26.95, 3.09 52.87, 3.88 72.51" stroke="#000000" stroke-width="1" fill="none"></path></g><g transform="translate(312.577338120572 595.8857223579564) rotate(0 1.5756728684445989 35.45093255930993)"><path d="M-7.98 46.71 C-5.24 56.01, 1.91 62.96, 2.58 74.1 M-6.15 43.04 C-1.95 55.25, 0.68 64.89, 3.22 74.43" stroke="#000000" stroke-width="1" fill="none"></path></g><g transform="translate(312.577338120572 595.8857223579564) rotate(0 1.5756728684445989 35.45093255930993)"><path d="M12.53 46.07 C7.86 55.53, 7.61 62.7, 2.58 74.1 M14.36 42.41 C10.75 55.09, 5.56 64.97, 3.22 74.43" stroke="#000000" stroke-width="1" fill="none"></path></g></g><g stroke-linecap="round" transform="translate(208.73363388553696 667.2294618502615) rotate(0 108 76)"><path d="M105.56 -1.13 C139.59 24.59, 171.14 49.03, 215.34 74.86 M110.56 -1.48 C132.86 17.33, 157.08 36.34, 215.6 75.84 M212.01 75.64 C175.97 104.46, 142.14 135.02, 110.53 151.37 M215.76 76.91 C183.85 99.53, 152.39 120.82, 108.66 152.69 M112.2 152.08 C71.66 121.91, 29.48 94.34, -2.03 74.4 M109.13 150.69 C70.69 125.12, 27.25 96.95, -0.28 75.08 M1.78 79.3 C43.56 47.54, 83.43 19.38, 108.38 0.34 M0.93 78.64 C33.46 54.22, 63.35 30.85, 108.57 -0.91" stroke="#000000" stroke-width="1" fill="none"></path></g><g transform="translate(273.23363388553696 705.7294618502615) rotate(0 43.5 37.5)"><text x="43.5" y="18" font-family="Virgil, Segoe UI Emoji" font-size="20px" fill="#c92a2a" text-anchor="middle" style="white-space: pre;" direction="ltr">Does my</text><text x="43.5" y="43" font-family="Virgil, Segoe UI Emoji" font-size="20px" fill="#c92a2a" text-anchor="middle" style="white-space: pre;" direction="ltr">client</text><text x="43.5" y="68" font-family="Virgil, Segoe UI Emoji" font-size="20px" fill="#c92a2a" text-anchor="middle" style="white-space: pre;" direction="ltr">LOVE it?</text></g><g stroke-linecap="round"><g transform="translate(209.69850007356115 746.3153316527046) rotate(0 -44.42683177720596 -114.50989951301074)"><path d="M0 0 C0 0, 0 0, 0 0 M0 0 C0 0, 0 0, 0 0 M1.18 3.77 C-32.97 -8.39, -67.52 -18.75, -143.67 -52.19 M-0.11 -1.7 C-49.65 -18.37, -98.54 -33.99, -147.65 -48.68 M-142.71 -50.82 C-144.34 -111.36, -146.32 -174.03, -140 -232.79 M-147.6 -47.67 C-147.03 -102.05, -145.95 -158.68, -143.62 -229.79 M-139.07 -226.88 C-64.83 -228, 9.57 -227.79, 55.84 -231.33 M-142.76 -230.69 C-73.14 -224.92, -8.84 -223.77, 58.79 -226.79" stroke="#c92a2a" stroke-width="1" fill="none"></path></g><g transform="translate(209.69850007356115 746.3153316527046) rotate(0 -44.42683177720596 -114.50989951301074)"><path d="M28.12 -213.07 C37.8 -216.72, 40.37 -217.8, 59.79 -228.74 M28.97 -215.1 C40.61 -218.06, 46.1 -224.01, 57.79 -227.95" stroke="#c92a2a" stroke-width="1" fill="none"></path></g><g transform="translate(209.69850007356115 746.3153316527046) rotate(0 -44.42683177720596 -114.50989951301074)"><path d="M27.58 -233.58 C37.4 -233.02, 40.08 -229.88, 59.79 -228.74 M28.43 -235.62 C40.5 -232.7, 46.14 -232.77, 57.79 -227.95" stroke="#c92a2a" stroke-width="1" fill="none"></path></g></g><g transform="translate(125.60366329048748 677.4736569159945) rotate(0 44 12.5)"><text x="0" y="18" font-family="Virgil, Segoe UI Emoji" font-size="20px" fill="#c92a2a" text-anchor="start" style="white-space: pre;" direction="ltr">Umm Nah</text></g><g stroke-linecap="round"><g transform="translate(425.86702422138114 743.1518582443808) rotate(0 32.5721887513219 -162.3746229749368)"><path d="M0 0 C0 0, 0 0, 0 0 M0 0 C0 0, 0 0, 0 0 M1.22 1.45 C10.99 -3.89, 21.96 -3.54, 36.28 -3 M1.56 -0.81 C14.06 -2.46, 22.83 -3.71, 35.21 -5.84 M32.78 -5.8 C32.67 -86.39, 31.74 -171.99, 36.21 -325.32 M32.91 -5.92 C33 -126.99, 34.24 -246.19, 33.22 -325.02 M30.77 -322.25 C44.74 -325.41, 55.07 -322.22, 64.87 -326.2 M32.89 -323.81 C40.95 -325.63, 51.07 -325.83, 65.14 -324.5" stroke="#2b8a3e" stroke-width="1" fill="none"></path></g><g transform="translate(425.86702422138114 743.1518582443808) rotate(0 32.5721887513219 -162.3746229749368)"><path d="M51.83 -318.25 C51.77 -323.86, 56.21 -322.67, 67.78 -324.79 M51.09 -318.74 C55.69 -322.53, 62.52 -322.06, 64.52 -325.54" stroke="#2b8a3e" stroke-width="1" fill="none"></path></g><g transform="translate(425.86702422138114 743.1518582443808) rotate(0 32.5721887513219 -162.3746229749368)"><path d="M52.55 -329.12 C52.25 -332.44, 56.53 -328.94, 67.78 -324.79 M51.82 -329.61 C56.25 -329.44, 62.81 -324.97, 64.52 -325.54" stroke="#2b8a3e" stroke-width="1" fill="none"></path></g></g><g transform="translate(378.41536557411507 639.5122173675228) rotate(269.0876882587207 57 12.5)"><text x="0" y="18" font-family="Virgil, Segoe UI Emoji" font-size="20px" fill="#2b8a3e" text-anchor="start" style="white-space: pre;" direction="ltr">Hell YEAH :)</text></g><g stroke-linecap="round" transform="translate(512.3343453849916 378.30165268952743) rotate(0 119.15631843995448 220.91365380983478)"><path d="M2.59 0.54 C68.25 -2.99, 138.73 1.05, 236.95 -1.19 M1.06 -1.2 C64.1 1.47, 126.4 -0.24, 237.57 1.62 M237.56 0.28 C238.45 110.54, 239.52 220.87, 239.2 443.55 M238.96 -0.61 C234.9 165.78, 233.5 331.15, 237.51 442.29 M237.53 439.7 C191.25 440.49, 141.88 440.4, 2.66 441.01 M238.11 442.63 C167.6 439.11, 100.08 437.89, -0.04 440.54 M1.21 442.12 C-1.55 298.23, -1.06 153.59, 0.23 1.27 M0.79 441.91 C-0.13 268, -1.24 95.69, 0.84 0.72" stroke="#2b8a3e" stroke-width="1" fill="none"></path></g><g transform="translate(586.9388222809473 385.1274637837163) rotate(0 44 17.5)"><text x="0" y="25" font-family="Virgil, Segoe UI Emoji" font-size="28px" fill="#000000" text-anchor="start" style="white-space: pre;" direction="ltr">Design</text></g><g stroke-linecap="round"><g transform="translate(513.3887895916585 429.97100771298926) rotate(0 117.7267488830019 1.2409167126347072)"><path d="M0.18 -1.52 C78.35 2.87, 162.69 1.24, 233.49 1.69 M0.53 -0.29 C85.68 4.93, 167.13 5.16, 235.27 1.62" stroke="#2b8a3e" stroke-width="1" fill="none"></path></g></g><g stroke-opacity="0.9" fill-opacity="0.9" transform="translate(524.9880982299628 446.2785536281664) rotate(0 85.5 70)"><text x="0" y="20" font-family="Virgil, Segoe UI Emoji" font-size="22.211012500340047px" fill="#364fc7" text-anchor="start" style="white-space: pre;" direction="ltr">- Color Palette</text><text x="0" y="48" font-family="Virgil, Segoe UI Emoji" font-size="22.211012500340047px" fill="#364fc7" text-anchor="start" style="white-space: pre;" direction="ltr">- Fonts</text><text x="0" y="76" font-family="Virgil, Segoe UI Emoji" font-size="22.211012500340047px" fill="#364fc7" text-anchor="start" style="white-space: pre;" direction="ltr">- Theme</text><text x="0" y="104" font-family="Virgil, Segoe UI Emoji" font-size="22.211012500340047px" fill="#364fc7" text-anchor="start" style="white-space: pre;" direction="ltr">- Typography</text><text x="0" y="132" font-family="Virgil, Segoe UI Emoji" font-size="22.211012500340047px" fill="#364fc7" text-anchor="start" style="white-space: pre;" direction="ltr">- Assets</text></g><g stroke-opacity="0.9" fill-opacity="0.9" stroke-linecap="round" transform="translate(526.0425625492471 609.2326773073275) rotate(0 26.889242394103746 28.998211257907712)"><path d="M1.32 -2.09 C12.55 -0.56, 21.58 1.79, 54.79 -0.62 M1.24 0.59 C10.26 0.75, 23.62 0.95, 54.21 -0.19 M55.85 1.74 C55.85 19.48, 52.31 43.24, 55.47 58.27 M52.82 -1.25 C53.81 17.98, 53.86 32.18, 53.38 57.96 M54.19 55.09 C37.63 59.07, 17.01 60.85, -2.01 54.13 M54.47 57.77 C41.2 55.49, 30.78 56.19, 0.5 59.21 M-2.54 56.42 C-4.6 38.53, -0.15 20.75, 1.04 -2.97 M0.8 58.37 C-0.73 45.74, 0.54 32.26, 0.64 1.55" stroke="#364fc7" stroke-width="1" fill="none"></path></g><g stroke-opacity="0.9" fill-opacity="0.9" stroke-linecap="round" transform="translate(591.4203559757586 608.1782129880432) rotate(0 29.525443417549923 51.669556149638765)"><path d="M1.38 -0.45 C10.13 -2.94, 24.57 -1.55, 60.04 2.43 M-1.27 -0.79 C18.04 0.74, 40.2 1.64, 59.57 -1.49 M60.65 0.75 C61.89 24.4, 64.43 46.37, 60.32 106.43 M57.44 -0.82 C57.15 30.28, 56.42 61.16, 60.4 103.79 M57.36 104.84 C41.16 103.82, 25.01 107.29, -0.78 102.43 M57.38 105.04 C44.75 102.42, 29.04 102.75, -0.1 102.02 M-2.73 104.76 C-1.15 78.31, -1.04 63.71, 1.93 -2.89 M-0.81 102.2 C-0.58 76.28, 0.28 44.31, 1.21 1.7" stroke="#364fc7" stroke-width="1" fill="none"></path></g><g stroke-opacity="0.9" fill-opacity="0.9" stroke-linecap="round" transform="translate(663.1250157684472 608.1782129880432) rotate(0 34.27063341741757 27.943746938623406)"><path d="M2.14 -1.5 C21.02 -2, 38.94 -3.81, 64.79 1.81 M-0.11 -1.86 C14.43 1.01, 29.93 -1.93, 68.16 0.28 M67.96 3.96 C69.24 11.33, 70.51 29.83, 68.68 59.45 M69.34 -1.73 C69.42 18.47, 66.07 38.11, 66.84 56.69 M65.36 55.95 C47.34 58.47, 31.62 60.07, 1.72 56.75 M67.2 54.97 C51.02 57.85, 34.76 58.26, 1.51 53.9 M-3.49 57.11 C0.37 43.4, -3.04 27.8, -0.8 1.69 M1.03 55.71 C-0.45 37.69, 2.4 19.86, -1.24 1.45" stroke="#364fc7" stroke-width="1" fill="none"></path></g><g stroke-opacity="0.9" fill-opacity="0.9" stroke-linecap="round" transform="translate(524.9880982299628 677.7739039169277) rotate(0 27.94372682600573 56.41472603688891)"><path d="M-1.7 1.59 C22.91 3.17, 43.36 0.84, 53.73 -1.86 M-0.65 0.95 C20.85 1.87, 43.3 -1.47, 54.87 -1.58 M55.37 1.43 C50 38.21, 53.12 78.61, 57.01 108.85 M54.33 0.14 C58.34 40.68, 55.81 81.54, 57.7 111.47 M56.4 113.73 C46.2 115.07, 26.74 112.21, -3.23 116.45 M57.05 114.28 C44.31 113.09, 33.04 111.18, 0.08 112.53 M2.69 115.23 C1.1 71.31, -0.59 32.09, 1.36 1.65 M1.71 111.78 C-0.59 76.79, -0.01 40.43, -1.73 -0.41" stroke="#364fc7" stroke-width="1" fill="none"></path></g><g stroke-opacity="0.9" fill-opacity="0.9" stroke-linecap="round" transform="translate(592.474820295043 730.4979243858506) rotate(0 27.41649466636352 28.998211257907712)"><path d="M0.8 2.69 C18.04 1.68, 31.72 -0.01, 58 1.36 M0.64 1.71 C17.66 -0.31, 38.18 0.27, 56.04 -1.73 M58.61 -2.99 C58.72 16, 58.38 35.81, 51.13 57.46 M52.98 -0.16 C54.74 15.98, 55.83 34.25, 55.95 57.32 M51.26 54.49 C41.9 60.83, 28.63 58.54, 1.41 57.85 M53.53 56.76 C40.2 60.65, 25.28 57.48, -1.32 56.47 M-0.61 54.34 C-2.55 45.35, -3.11 32.4, 1.51 3.79 M1.21 57.02 C-0.66 41.87, 2.19 28.69, 0.72 1.2" stroke="#364fc7" stroke-width="1" fill="none"></path></g><g stroke-opacity="0.9" fill-opacity="0.9" stroke-linecap="round" transform="translate(668.3974178153394 677.7739039169277) rotate(0 31.10718012171162 60.10539137961939)"><path d="M1.43 2.4 C17.39 -3.36, 26.02 -3.55, 60.48 0.85 M0.11 -1.37 C20.33 1.81, 37.6 2.97, 62.57 1.5 M62.82 2.02 C59.7 34.7, 63.88 74.56, 64.89 121.38 M63 -0.38 C62.79 45.34, 62.15 95.3, 61.77 118.33 M63.94 123 C41.73 121.83, 16.43 118.33, 0.99 122.25 M61.1 119.16 C44.61 119.86, 25.23 119.1, 0.4 119.25 M0.64 123.5 C0.2 81.83, 0.59 41.58, -0.18 0.9 M-1.57 119.66 C1.87 82.5, 4.19 47.07, -0.53 0.73" stroke="#364fc7" stroke-width="1" fill="none"></path></g><g stroke-opacity="0.9" fill-opacity="0.9" transform="translate(543.9318049433507 625.7308885652353) rotate(0 9 12.5)"><text x="9" y="18" font-family="Virgil, Segoe UI Emoji" font-size="20px" fill="#364fc7" text-anchor="middle" style="white-space: pre;" direction="ltr">D</text></g><g stroke-opacity="0.9" fill-opacity="0.9" transform="translate(613.4457993933086 647.347769137682) rotate(0 7.5 12.5)"><text x="7.5" y="18" font-family="Virgil, Segoe UI Emoji" font-size="20px" fill="#364fc7" text-anchor="middle" style="white-space: pre;" direction="ltr">E</text></g><g stroke-opacity="0.9" fill-opacity="0.9" transform="translate(690.3956491858646 623.6219599266667) rotate(0 7 12.5)"><text x="7" y="18" font-family="Virgil, Segoe UI Emoji" font-size="20px" fill="#364fc7" text-anchor="middle" style="white-space: pre;" direction="ltr">S</text></g><g stroke-opacity="0.9" fill-opacity="0.9" transform="translate(546.4318250559684 721.6886299538166) rotate(0 6.5 12.5)"><text x="6.5" y="18" font-family="Virgil, Segoe UI Emoji" font-size="20px" fill="#364fc7" text-anchor="middle" style="white-space: pre;" direction="ltr">I</text></g><g stroke-opacity="0.9" fill-opacity="0.9" transform="translate(610.8913149614064 746.9961356437584) rotate(0 9 12.5)"><text x="9" y="18" font-family="Virgil, Segoe UI Emoji" font-size="20px" fill="#364fc7" text-anchor="middle" style="white-space: pre;" direction="ltr">G</text></g><g stroke-opacity="0.9" fill-opacity="0.9" transform="translate(692.0045979370509 725.3792952965471) rotate(0 7.5 12.5)"><text x="7.5" y="18" font-family="Virgil, Segoe UI Emoji" font-size="20px" fill="#364fc7" text-anchor="middle" style="white-space: pre;" direction="ltr">N</text></g><g stroke-linecap="round"><g stroke-opacity="0.9" fill-opacity="0.9" transform="translate(632.5450678063776 818.4591705648688) rotate(0 -4.081463777724821 25.474464088216337)"><path d="M-1.37 -1.37 C-2.61 16.45, -7.22 32.13, -6.71 52.73 M-1.29 -1.78 C-3.98 10.67, -5.96 24.96, -6.88 51.4" stroke="#364fc7" stroke-width="1" fill="none"></path></g><g stroke-opacity="0.9" fill-opacity="0.9" transform="translate(632.5450678063776 818.4591705648688) rotate(0 -4.081463777724821 25.474464088216337)"><path d="M-15.62 25.86 C-10.97 34.55, -9.81 41.03, -4.88 54.34 M-15.54 25.44 C-14.09 31.68, -12.03 39.52, -5.05 53" stroke="#364fc7" stroke-width="1" fill="none"></path></g><g stroke-opacity="0.9" fill-opacity="0.9" transform="translate(632.5450678063776 818.4591705648688) rotate(0 -4.081463777724821 25.474464088216337)"><path d="M1.64 26.77 C0.09 35.04, -4.95 41.19, -4.88 54.34 M1.73 26.35 C-1.17 32.11, -3.45 39.73, -5.05 53" stroke="#364fc7" stroke-width="1" fill="none"></path></g></g><g stroke-opacity="0.9" fill-opacity="0.9" stroke-linecap="round" transform="translate(514.4432941361781 872.2376553530762) rotate(0 109.13872639319436 32.68891682587349)"><path d="M0.53 0.99 C51.03 -0.16, 101.92 -5.34, 221.25 2.63 M1.44 0.17 C69.54 -0.45, 141.78 -0.63, 217.31 1.53 M214.94 -0.31 C222.31 16.43, 218.24 33.13, 219.12 65.87 M218.27 0.18 C216.8 13.12, 217.24 26.18, 216.66 64.8 M221.06 62.15 C170.81 62.77, 117.98 62.46, 1.3 62.12 M219.95 66.84 C148.63 68.07, 83.01 66.79, -0.66 66.42 M3.29 68.32 C3.72 45.18, -1.69 26.64, 1.45 2.9 M-1.66 64.78 C-1.56 46.83, -0.32 25.41, 1.76 0.56" stroke="#364fc7" stroke-width="1" fill="none"></path></g><g stroke-opacity="0.9" fill-opacity="0.9" transform="translate(540.8052641454042 880.3818083104004) rotate(0 77.5 17.5)"><text x="0" y="25" font-family="Virgil, Segoe UI Emoji" font-size="28px" fill="#000000" text-anchor="start" style="white-space: pre;" direction="ltr">Prototyping</text></g><g stroke-linecap="round" transform="translate(700.3483579984572 895.875829866153) rotate(0 11.583154979415895 11.583154979415895)"><path d="M12.21 -0.08 C14.37 -0.35, 17.29 1.12, 18.96 2.73 C20.62 4.33, 21.92 7.05, 22.19 9.55 C22.46 12.04, 21.7 15.49, 20.57 17.71 C19.44 19.94, 17.49 22.19, 15.41 22.92 C13.34 23.65, 10.59 22.97, 8.14 22.09 C5.68 21.22, 2.11 19.89, 0.7 17.65 C-0.7 15.4, -0.99 11.11, -0.29 8.63 C0.41 6.15, 2.52 4.21, 4.89 2.77 C7.27 1.33, 12.43 0.24, 13.97 0.01 C15.5 -0.23, 14.34 1.07, 14.12 1.37 M9.16 -0.23 C11.27 -0.93, 14.65 1.11, 16.58 2.22 C18.51 3.32, 19.75 4.31, 20.74 6.38 C21.74 8.45, 22.79 12.15, 22.57 14.66 C22.34 17.17, 21.48 19.97, 19.4 21.46 C17.32 22.95, 12.51 23.59, 10.1 23.61 C7.68 23.64, 6.82 23.23, 4.92 21.6 C3.01 19.98, -0.65 16.65, -1.32 13.86 C-1.99 11.07, -0.45 7.12, 0.9 4.89 C2.24 2.65, 5.35 1.31, 6.74 0.46 C8.13 -0.38, 9.19 -0.32, 9.25 -0.16" stroke="#5c940d" stroke-width="1" fill="none"></path></g><g stroke-linecap="round" transform="translate(707.9718589108456 902.8666893707837) rotate(0 3.8728125589534557 4.54633400694695)"><path d="M1.68 0.17 C2.1 -0.08, 2.78 1.36, 3.59 1.76 C4.39 2.15, 5.74 1.83, 6.52 2.53 C7.31 3.22, 8.17 5, 8.3 5.95 C8.43 6.91, 7.84 7.47, 7.31 8.25 C6.77 9.03, 6.21 10.75, 5.07 10.65 C3.93 10.56, 1.38 8.27, 0.46 7.67 C-0.46 7.06, -0.62 8.1, -0.47 7.03 C-0.32 5.97, 1.14 2.71, 1.34 1.25 C1.54 -0.2, 0.64 -1.26, 0.72 -1.72 C0.8 -2.18, 1.68 -1.9, 1.81 -1.51 M4.71 -1.22 C5.37 -1.3, 1.61 2.22, 1.7 2.77 C1.8 3.31, 3.92 1.71, 5.26 2.06 C6.61 2.42, 9.81 3.81, 9.77 4.9 C9.74 6, 5.68 7.79, 5.05 8.63 C4.41 9.47, 6.18 9.87, 5.95 9.94 C5.71 10, 4.55 9.42, 3.64 9.02 C2.73 8.62, 0.6 9.04, 0.49 7.54 C0.38 6.03, 2.6 1.11, 2.97 0 C3.35 -1.12, 2.65 0.85, 2.72 0.83 C2.79 0.81, 3.07 -0.6, 3.39 -0.12" stroke="none" stroke-width="0" fill="#40c057"></path><path d="M6.62 0.9 C6.8 1.18, 7.4 1.96, 7.32 2.76 C7.24 3.55, 6.58 4.57, 6.14 5.68 C5.7 6.78, 5.27 8.65, 4.69 9.4 C4.11 10.16, 3.5 10.97, 2.68 10.2 C1.85 9.44, -0.02 6.18, -0.24 4.81 C-0.46 3.45, 1.21 2.53, 1.37 1.99 C1.52 1.46, 0.08 1.68, 0.69 1.62 C1.3 1.56, 3.91 1.37, 5.04 1.62 C6.17 1.87, 6.78 2.54, 7.45 3.13 C8.13 3.73, 8.93 5.3, 9.08 5.17 M4.99 3.54 C6.02 3.41, 10.25 2.18, 10.74 2.69 C11.23 3.2, 8.63 5.41, 7.94 6.6 C7.25 7.8, 7.27 10.01, 6.6 9.85 C5.93 9.7, 4.81 6.01, 3.9 5.66 C2.99 5.32, 1.36 8.74, 1.14 7.81 C0.93 6.87, 2.36 1.49, 2.59 0.06 C2.83 -1.36, 2.52 -0.42, 2.55 -0.73 C2.59 -1.05, 2.16 -2.7, 2.8 -1.81 C3.44 -0.93, 6.08 4.31, 6.38 4.56 C6.69 4.81, 4.74 0.6, 4.63 -0.32" stroke="#5c940d" stroke-width="1" fill="none"></path></g><g stroke-linecap="round"><g stroke-opacity="0.9" fill-opacity="0.9" transform="translate(711.6308973835853 908.7929413496586) rotate(0 -16.434204818750118 25.31774927872391)"><path d="M0 1.04 C-8.36 15.76, -19.98 28.52, -29.07 49.6 M-0.25 1.82 C-9.72 14.01, -20.23 30.54, -32.87 48.13" stroke="#5c940d" stroke-width="1" fill="none"></path></g></g><g transform="translate(586.4064397094089 972.7019791671122) rotate(0 67.5 25)"><text x="0" y="17" font-family="Virgil, Segoe UI Emoji" font-size="20px" fill="#5c940d" text-anchor="start" style="white-space: pre;" direction="ltr">Checkpoint 2 </text><text x="0" y="42" font-family="Virgil, Segoe UI Emoji" font-size="20px" fill="#5c940d" text-anchor="start" style="white-space: pre;" direction="ltr"></text></g><g stroke-linecap="round" transform="translate(582.1315250670868 960.284451671931) rotate(0 68.07616200180303 23.200838600290183)"><path d="M11.6 0 M11.6 0 C46.26 4.4, 79.28 3.3, 124.55 0 M11.6 0 C54.78 0.59, 92.97 0.73, 124.55 0 M124.55 0 C130.68 -2.46, 137.51 1.1, 136.15 11.6 M124.55 0 C135.15 -0.6, 132.39 8.21, 136.15 11.6 M136.15 11.6 C132.44 15.45, 136.93 27.42, 136.15 34.8 M136.15 11.6 C136.91 19.21, 134.62 21.96, 136.15 34.8 M136.15 34.8 C135.9 45.24, 131.6 50.33, 124.55 46.4 M136.15 34.8 C132.9 40.89, 130.38 47.42, 124.55 46.4 M124.55 46.4 C92.18 45.79, 61.27 45.79, 11.6 46.4 M124.55 46.4 C84.59 43.12, 45.29 42.6, 11.6 46.4 M11.6 46.4 C5.31 49.28, 0.48 46.12, 0 34.8 M11.6 46.4 C2.65 47.75, 3.15 40.11, 0 34.8 M0 34.8 C-1.37 28.54, -1.6 23.31, 0 11.6 M0 34.8 C-0.76 25.32, -0.67 17.05, 0 11.6 M0 11.6 C-2.17 2.01, 1.73 -0.49, 11.6 0 M0 11.6 C2.03 3.33, 2.77 2, 11.6 0" stroke="#5c940d" stroke-width="1" fill="none"></path></g><g stroke-linecap="round" transform="translate(210.30983340617206 829.9810364982338) rotate(0 108 76)"><path d="M106.43 1.9 C142.59 26.18, 179.57 51.21, 215.9 76.02 M107.14 1.15 C139.39 20.39, 167.04 39.31, 217.24 75.06 M216.75 75.71 C184.2 99.29, 156.38 122.05, 112.57 153.69 M215.34 78.18 C194.88 94.66, 169.62 110.44, 110.95 151.4 M106.13 150.32 C76.76 129.4, 50.65 106.26, -3.7 79.39 M109.1 152.55 C73.99 127.34, 38.69 101.7, -1.28 75.8 M-1.7 73.36 C41.74 48.25, 88.41 13.17, 106.35 2.82 M-1.66 75.77 C34.65 49.4, 71.73 24.06, 110.65 -0.2" stroke="#000000" stroke-width="1" fill="none"></path></g><g transform="translate(274.80983340617206 868.4810364982338) rotate(0 43.5 37.5)"><text x="43.5" y="18" font-family="Virgil, Segoe UI Emoji" font-size="20px" fill="#c92a2a" text-anchor="middle" style="white-space: pre;" direction="ltr">Does my</text><text x="43.5" y="43" font-family="Virgil, Segoe UI Emoji" font-size="20px" fill="#c92a2a" text-anchor="middle" style="white-space: pre;" direction="ltr">client</text><text x="43.5" y="68" font-family="Virgil, Segoe UI Emoji" font-size="20px" fill="#c92a2a" text-anchor="middle" style="white-space: pre;" direction="ltr">LOVE it?</text></g><g stroke-linecap="round"><g stroke-opacity="0.9" fill-opacity="0.9" transform="translate(513.3887091411877 905.1901681461529) rotate(0 -47.592622171582434 0.36487958580249824)"><path d="M-1.35 -2.18 C-24.64 1.4, -48.97 -0.47, -90.01 2.91 M0 -1.23 C-35.02 1.52, -67.18 -0.17, -95.19 0.4" stroke="#000000" stroke-width="1" fill="none"></path></g><g stroke-opacity="0.9" fill-opacity="0.9" transform="translate(513.3887091411877 905.1901681461529) rotate(0 -47.592622171582434 0.36487958580249824)"><path d="M-68.38 -12.13 C-74.69 -7.13, -82.05 -6.32, -91.35 3.3 M-67.03 -11.18 C-78.22 -5.17, -86.36 -3.08, -96.53 0.79" stroke="#000000" stroke-width="1" fill="none"></path></g><g stroke-opacity="0.9" fill-opacity="0.9" transform="translate(513.3887091411877 905.1901681461529) rotate(0 -47.592622171582434 0.36487958580249824)"><path d="M-68.32 8.39 C-74.69 8.09, -82.07 3.6, -91.35 3.3 M-66.96 9.34 C-77.83 7.85, -86 2.45, -96.53 0.79" stroke="#000000" stroke-width="1" fill="none"></path></g></g><g stroke-linecap="round"><g stroke-opacity="0.9" fill-opacity="0.9" transform="translate(317.1497065338291 979.0976364750992) rotate(0 216.06474475148852 -36.214374495156136)"><path d="M-0.04 -0.21 C0.38 0.47, -0.07 1.54, -0.39 2.38 M0.16 -0.19 C0.14 0.63, -0.2 1.49, 0.13 1.92 M2.43 3.71 C0.14 26.02, 2.03 52.51, -0.07 87.73 M0.24 1.94 C-2.47 34.89, -0.36 70.51, 1.87 87.18 M-0.94 85.94 C129.2 90.55, 257.54 88.77, 430.87 84.36 M-0.68 85.46 C140.8 89.89, 281.15 88.84, 428.9 84.31 M432.55 87.11 C431.3 -12.39, 432.44 -105.92, 432.22 -160.8 M430.92 83.89 C433.56 14.18, 434.17 -57.08, 431.15 -161.07" stroke="#c92a2a" stroke-width="1" fill="none"></path></g><g stroke-opacity="0.9" fill-opacity="0.9" transform="translate(317.1497065338291 979.0976364750992) rotate(0 216.06474475148852 -36.214374495156136)"><path d="M441.61 -135.09 C441.81 -145.53, 433.75 -152.03, 427.44 -158.48 M443.54 -134.92 C439.59 -143.93, 432.64 -152.42, 432.34 -162.86" stroke="#c92a2a" stroke-width="1" fill="none"></path></g><g stroke-opacity="0.9" fill-opacity="0.9" transform="translate(317.1497065338291 979.0976364750992) rotate(0 216.06474475148852 -36.214374495156136)"><path d="M421.09 -134.66 C428.41 -144.85, 427.48 -151.51, 427.44 -158.48 M423.02 -134.49 C426.17 -143.27, 426.32 -151.91, 432.34 -162.86" stroke="#c92a2a" stroke-width="1" fill="none"></path></g></g><g stroke-opacity="0.9" fill-opacity="0.9" transform="translate(345.46267176747915 1028.4396397893488) rotate(0 110.5 12.5)"><text x="0" y="18" font-family="Virgil, Segoe UI Emoji" font-size="20px" fill="#c92a2a" text-anchor="start" style="white-space: pre;" direction="ltr">I'm not fully satisfied</text></g><g stroke-linecap="round"><g stroke-opacity="0.9" fill-opacity="0.9" transform="translate(205.4228109244093 905.6103019421059) rotate(0.1212656787478566 -70.83724797784646 27.452571019079755)"><path d="M3.08 -0.91 C-37.36 -2.7, -83.28 1.9, -142.87 -3.26 M1.1 -0.8 C-38.21 -2.06, -72.71 -3.94, -143.49 -3.81 M-144.64 1.39 C-140.36 17.87, -142.65 34.26, -138.02 58.72 M-144.75 -0.67 C-143.73 19.62, -142.03 45.37, -140.97 56.83" stroke="#5c940d" stroke-width="1" fill="none"></path></g><g stroke-opacity="0.9" fill-opacity="0.9" transform="translate(205.4228109244093 905.6103019421059) rotate(0.1212656787478566 -70.83724797784646 27.452571019079755)"><path d="M-150.37 28.64 C-147.08 33.62, -149.29 46.51, -139.37 56.03 M-152.35 28.74 C-151.95 37.74, -146.27 43.47, -140 55.48" stroke="#5c940d" stroke-width="1" fill="none"></path></g><g stroke-opacity="0.9" fill-opacity="0.9" transform="translate(205.4228109244093 905.6103019421059) rotate(0.1212656787478566 -70.83724797784646 27.452571019079755)"><path d="M-129.91 27 C-132.32 32.63, -140.23 45.98, -139.37 56.03 M-131.89 27.11 C-136.76 36.18, -136.32 42.33, -140 55.48" stroke="#5c940d" stroke-width="1" fill="none"></path></g></g><g stroke-opacity="0.9" fill-opacity="0.9" transform="translate(68.66164475610412 829.6700584863675) rotate(0 86 25)"><text x="0" y="17" font-family="Virgil, Segoe UI Emoji" font-size="20px" fill="#5c940d" text-anchor="start" style="white-space: pre;" direction="ltr">What a</text><text x="0" y="42" font-family="Virgil, Segoe UI Emoji" font-size="20px" fill="#5c940d" text-anchor="start" style="white-space: pre;" direction="ltr">MASTERPIECE !!</text></g><g stroke-linecap="round" transform="translate(10 967.0834586911882) rotate(0 68.49998474121094 33.500022888183594)"><path d="M97.65 2.5 C108.21 4.53, 118.37 10.33, 125.03 14.89 C131.69 19.46, 136.57 24.39, 137.63 29.88 C138.68 35.37, 136.25 42.74, 131.37 47.83 C126.49 52.92, 117.54 57.21, 108.33 60.44 C99.13 63.66, 87.51 66.68, 76.15 67.18 C64.79 67.68, 50.72 65.95, 40.19 63.46 C29.66 60.97, 19.76 56.64, 12.99 52.22 C6.22 47.79, 0.85 42.29, -0.44 36.92 C-1.73 31.54, 0.4 25, 5.24 19.96 C10.08 14.91, 19.19 10.11, 28.59 6.67 C38 3.23, 49.57 -0.27, 61.66 -0.68 C73.76 -1.1, 94.26 3.19, 101.17 4.18 C108.07 5.18, 103.8 4.98, 103.09 5.29 M83.8 0.85 C94.52 1.93, 107.07 6.23, 115.65 10.19 C124.23 14.15, 131.95 19.33, 135.27 24.61 C138.59 29.9, 138.43 36.63, 135.54 41.88 C132.65 47.13, 125.79 52.29, 117.92 56.12 C110.06 59.94, 99.37 63.06, 88.34 64.83 C77.31 66.59, 63.01 67.67, 51.74 66.69 C40.48 65.7, 28.9 62.86, 20.77 58.93 C12.63 55.01, 5.86 48.4, 2.94 43.13 C0.01 37.85, 0.63 32.88, 3.21 27.28 C5.79 21.68, 10.97 13.98, 18.43 9.53 C25.89 5.09, 36.91 1.95, 47.97 0.61 C59.02 -0.74, 78.66 1.41, 84.76 1.44 C90.86 1.47, 84.89 0.23, 84.57 0.76" stroke="#364fc7" stroke-width="1" fill="none"></path></g><g transform="translate(54.15374799114238 979.9744669392004) rotate(0 25 17.5)"><text x="0" y="25" font-family="Virgil, Segoe UI Emoji" font-size="28px" fill="#364fc7" text-anchor="start" style="white-space: pre;" direction="ltr">End</text></g><g stroke-linecap="round" transform="translate(-89.77604181182181 200.94802689378236) rotate(270 200.86563579072947 61.33302570608305)"><path d="M27.57 0.76 L367.9 -0.13 L386.7 5.77 L394 8.55 L398.23 21.11 L402.91 94.56 L401.81 106.55 L388.97 121.45 L370.79 124.41 L28.95 119.77 L15.48 124 L7.94 114.52 L-0.32 100.98 L-2.84 21.18 L5.63 9.57 L17.9 1.26 L30.11 0.49" stroke="none" stroke-width="0" fill="#fa5252"></path><path d="M30.67 0 M30.67 0 C125.5 -2.6, 217.78 -3.52, 371.06 0 M30.67 0 C119.65 0.7, 209.74 -1.18, 371.06 0 M371.06 0 C387.95 2.62, 404.86 14.08, 401.73 30.67 M371.06 0 C389.9 0.2, 405.39 11.72, 401.73 30.67 M401.73 30.67 C404.89 56.89, 400.22 77.84, 401.73 92 M401.73 30.67 C401.09 53.65, 403.31 76.49, 401.73 92 M401.73 92 C400.23 112.14, 389.4 122.91, 371.06 122.67 M401.73 92 C402.84 112.24, 387.39 118.81, 371.06 122.67 M371.06 122.67 C274.66 122.22, 179.16 123.67, 30.67 122.67 M371.06 122.67 C244.69 121.22, 117.92 121.35, 30.67 122.67 M30.67 122.67 C13.56 125.78, 0.88 109.42, 0 92 M30.67 122.67 C8.85 119.95, 1.07 109.09, 0 92 M0 92 C-1.41 69.16, -1.24 52.5, 0 30.67 M0 92 C0.74 76.35, -1.67 55.83, 0 30.67 M0 30.67 C-0.84 10.23, 13.46 0.12, 30.67 0 M0 30.67 C-4.09 6.06, 6.15 4.36, 30.67 0" stroke="#fff" stroke-width="1" fill="none"></path></g><g transform="translate(-64.45203423435282 236.44892553755352) rotate(270 171.59374999999997 24.4375)"><text x="0" y="34.87499999999999" font-family="Virgil, Segoe UI Emoji" font-size="38.24999999999999px" fill="#fff" text-anchor="start" style="white-space: pre;" direction="ltr">How do I Design ?</text></g><g stroke-linecap="round"><g transform="translate(583.7146744199003 1040.7585140832975) rotate(0 19.246212369989962 -1.3224113088779177)"><path d="M0 -1.2 C6.08 -1.24, 12.16 -1.28, 28.61 -1.39 M0 -1.2 C8.61 -1.26, 17.23 -1.31, 28.61 -1.39 M28.61 -1.39 C30.63 -1.4, 32.64 -1.41, 38.49 -1.44 M28.61 -1.39 C32.42 -1.41, 36.24 -1.43, 38.49 -1.44" stroke="#000000" stroke-width="1" fill="none"></path></g><g transform="translate(583.7146744199003 1040.7585140832975) rotate(0 19.246212369989962 -1.3224113088779177)"><path d="M33.86 0.27 C34.84 -0.09, 35.83 -0.46, 38.49 -1.44 M33.86 0.27 C35.25 -0.24, 36.65 -0.76, 38.49 -1.44" stroke="#000000" stroke-width="1" fill="none"></path></g><g transform="translate(583.7146744199003 1040.7585140832975) rotate(0 19.246212369989962 -1.3224113088779177)"><path d="M33.84 -3.11 C34.83 -2.75, 35.82 -2.4, 38.49 -1.44 M33.84 -3.11 C35.24 -2.61, 36.64 -2.11, 38.49 -1.44" stroke="#000000" stroke-width="1" fill="none"></path></g></g><g transform="translate(639.0828224846143 1027.3306415071972) rotate(0 31.5 12.5)"><text x="0" y="18" font-family="Virgil, Segoe UI Emoji" font-size="20px" fill="#000000" text-anchor="start" style="white-space: pre;" direction="ltr">Revise</text></g><g transform="translate(528.601624806839 27.58977302644996) rotate(0 7 9)"><text x="0" y="14" font-family="Helvetica, Segoe UI Emoji" font-size="16px" fill="#000000" text-anchor="start" style="white-space: pre;" direction="ltr">©</text></g><g stroke-opacity="0.5" fill-opacity="0.5" transform="translate(551.0370009903797 27.22446659891864) rotate(0 101 10)"><text x="0" y="14" font-family="Virgil, Segoe UI Emoji" font-size="16px" fill="#000000" text-anchor="start" style="white-space: pre;" direction="ltr">Amlan Saha Kundu, 2022</text></g></svg>