<svg xmlns="http://www.w3.org/2000/svg" xmlns:xlink="http://www.w3.org/1999/xlink" style="margin:auto;background:#000;display:block;z-index:1;position:relative" width="1920" height="1080" preserveAspectRatio="xMidYMid" viewBox="0 0 1920 1080">
	<g transform="translate(960,540) scale(1,1) translate(-960,-540)">
		<linearGradient id="lg-0.0005728506581863524" x1="0" x2="1" y1="0" y2="0">
			<stop stop-color="#73c2ff" offset="0"></stop>
			<stop stop-color="#000" offset="1"></stop>
		</linearGradient>
		<path d="M 1475 540 C 1475 622 1426 776 1378 843 C 1330 910 1150 861 1072 886 C 994 911 910 958 832 933 C 754 908 614 893 566 827 C 518 761 371 622 371 540 C 371 458 484 295 532 229 C 580 163 755 175 833 150 C 911 125 996 164 1074 189 C 1152 214 1313 182 1361 249 C 1409 316 1475 458 1475 540" fill="url(#lg-0.0005728506581863524)" opacity="0.43000000000000005">
			<animate attributeName="d" dur="7.692307692307692s" repeatCount="indefinite" keyTimes="0;0.3333333333333333;0.6666666666666666;1" calcmod="spline" keySplines="0.3 0.1 0.7 0.9;0.3 0.1 0.7 0.9;0.3 0.1 0.7 0.9" begin="-3.0769230769230766s" values="M 1475 540 C 1475 622 1426 776 1378 843 C 1330 910 1150 861 1072 886 C 994 911 910 958 832 933 C 754 908 614 893 566 827 C 518 761 371 622 371 540 C 371 458 484 295 532 229 C 580 163 755 175 833 150 C 911 125 996 164 1074 189 C 1152 214 1313 182 1361 249 C 1409 316 1475 458 1475 540;M 1669 540 C 1669 631 1552 857 1498 931 C 1444 1005 1185 938 1098 966 C 1011 994 905 1006 818 978 C 731 950 571 936 517 862 C 463 788 342 631 342 540 C 342 449 476 301 530 227 C 584 153 730 128 817 100 C 904 72 1022 55 1109 83 C 1196 111 1390 114 1444 188 C 1498 262 1669 449 1669 540;M 1275 540 C 1275 584 1233 685 1207 720 C 1181 755 1083 774 1041 788 C 999 802 922 800 880 786 C 838 772 773 730 747 695 C 721 660 650 584 650 540 C 650 496 682 392 708 357 C 734 322 840 315 882 301 C 924 287 994 293 1036 307 C 1078 321 1142 354 1168 389 C 1194 424 1275 496 1275 540;M 1475 540 C 1475 622 1426 776 1378 843 C 1330 910 1150 861 1072 886 C 994 911 910 958 832 933 C 754 908 614 893 566 827 C 518 761 371 622 371 540 C 371 458 484 295 532 229 C 580 163 755 175 833 150 C 911 125 996 164 1074 189 C 1152 214 1313 182 1361 249 C 1409 316 1475 458 1475 540"></animate>
		</path>
		<path d="M 1469 540 C 1469 609 1391 768 1350 824 C 1309 880 1137 860 1071 881 C 1005 902 901 947 835 926 C 769 905 628 867 587 811 C 546 755 441 609 441 540 C 441 471 559 334 599 278 C 639 222 778 203 844 182 C 910 161 1008 167 1074 188 C 1140 209 1329 186 1370 242 C 1411 298 1469 471 1469 540" fill="url(#lg-0.0005728506581863524)" opacity="0.43000000000000005">
			<animate attributeName="d" dur="7.692307692307692s" repeatCount="indefinite" keyTimes="0;0.3333333333333333;0.6666666666666666;1" calcmod="spline" keySplines="0.3 0.1 0.7 0.9;0.3 0.1 0.7 0.9;0.3 0.1 0.7 0.9" begin="-3.0769230769230766s" values="M 1469 540 C 1469 609 1391 768 1350 824 C 1309 880 1137 860 1071 881 C 1005 902 901 947 835 926 C 769 905 628 867 587 811 C 546 755 441 609 441 540 C 441 471 559 334 599 278 C 639 222 778 203 844 182 C 910 161 1008 167 1074 188 C 1140 209 1329 186 1370 242 C 1411 298 1469 471 1469 540;M 1198 540 C 1198 578 1194 664 1172 694 C 1150 724 1064 736 1028 748 C 992 760 940 725 904 713 C 868 701 792 708 770 678 C 748 648 670 578 670 540 C 670 502 723 414 745 384 C 767 354 863 366 899 354 C 935 342 985 340 1021 352 C 1057 364 1145 360 1167 390 C 1189 420 1198 502 1198 540;M 1456 540 C 1456 617 1362 737 1317 799 C 1272 861 1137 836 1064 860 C 991 884 897 982 824 958 C 751 934 557 927 512 865 C 467 803 404 617 404 540 C 404 463 497 298 542 236 C 587 174 747 135 820 111 C 893 87 1009 140 1082 164 C 1155 188 1338 171 1383 233 C 1428 295 1456 463 1456 540;M 1469 540 C 1469 609 1391 768 1350 824 C 1309 880 1137 860 1071 881 C 1005 902 901 947 835 926 C 769 905 628 867 587 811 C 546 755 441 609 441 540 C 441 471 559 334 599 278 C 639 222 778 203 844 182 C 910 161 1008 167 1074 188 C 1140 209 1329 186 1370 242 C 1411 298 1469 471 1469 540"></animate>
		</path>
		<path d="M 1366 540 C 1366 598 1317 728 1283 775 C 1249 822 1117 835 1062 853 C 1007 871 929 823 874 805 C 819 787 682 814 648 767 C 614 720 566 598 566 540 C 566 482 643 382 677 335 C 711 288 822 302 877 284 C 932 266 983 282 1038 300 C 1093 318 1244 262 1278 309 C 1312 356 1366 482 1366 540" fill="url(#lg-0.0005728506581863524)" opacity="0.43000000000000005">
			<animate attributeName="d" dur="7.692307692307692s" repeatCount="indefinite" keyTimes="0;0.3333333333333333;0.6666666666666666;1" calcmod="spline" keySplines="0.3 0.1 0.7 0.9;0.3 0.1 0.7 0.9;0.3 0.1 0.7 0.9" begin="-3.0769230769230766s" values="M 1366 540 C 1366 598 1317 728 1283 775 C 1249 822 1117 835 1062 853 C 1007 871 929 823 874 805 C 819 787 682 814 648 767 C 614 720 566 598 566 540 C 566 482 643 382 677 335 C 711 288 822 302 877 284 C 932 266 983 282 1038 300 C 1093 318 1244 262 1278 309 C 1312 356 1366 482 1366 540;M 1313 540 C 1313 596 1326 737 1293 782 C 1260 827 1119 850 1066 867 C 1013 884 922 836 869 819 C 816 802 712 790 679 744 C 646 698 593 596 593 540 C 593 484 624 365 657 320 C 690 275 814 271 867 254 C 920 237 1012 201 1065 218 C 1118 235 1245 264 1278 309 C 1311 354 1313 484 1313 540;M 1491 540 C 1491 607 1390 769 1350 823 C 1310 877 1128 838 1064 859 C 1000 880 925 867 861 846 C 797 825 672 832 632 778 C 592 724 466 607 466 540 C 466 473 583 349 623 295 C 663 241 770 172 834 151 C 898 130 997 208 1061 229 C 1125 250 1274 229 1314 283 C 1354 337 1491 473 1491 540;M 1366 540 C 1366 598 1317 728 1283 775 C 1249 822 1117 835 1062 853 C 1007 871 929 823 874 805 C 819 787 682 814 648 767 C 614 720 566 598 566 540 C 566 482 643 382 677 335 C 711 288 822 302 877 284 C 932 266 983 282 1038 300 C 1093 318 1244 262 1278 309 C 1312 356 1366 482 1366 540"></animate>
		</path>
		<path d="M 1396 540 C 1396 606 1352 743 1313 796 C 1274 849 1124 830 1061 850 C 998 870 930 847 867 827 C 804 807 680 825 641 772 C 602 719 468 606 468 540 C 468 474 554 326 593 273 C 632 220 800 260 863 240 C 926 220 994 220 1057 240 C 1120 260 1300 212 1339 265 C 1378 318 1396 474 1396 540" fill="url(#lg-0.0005728506581863524)" opacity="0.43000000000000005">
			<animate attributeName="d" dur="7.692307692307692s" repeatCount="indefinite" keyTimes="0;0.3333333333333333;0.6666666666666666;1" calcmod="spline" keySplines="0.3 0.1 0.7 0.9;0.3 0.1 0.7 0.9;0.3 0.1 0.7 0.9" begin="-3.0769230769230766s" values="M 1396 540 C 1396 606 1352 743 1313 796 C 1274 849 1124 830 1061 850 C 998 870 930 847 867 827 C 804 807 680 825 641 772 C 602 719 468 606 468 540 C 468 474 554 326 593 273 C 632 220 800 260 863 240 C 926 220 994 220 1057 240 C 1120 260 1300 212 1339 265 C 1378 318 1396 474 1396 540;M 1298 540 C 1298 583 1219 676 1194 710 C 1169 744 1058 704 1017 717 C 976 730 923 789 883 776 C 843 763 757 740 732 706 C 707 672 640 583 640 540 C 640 497 705 407 730 373 C 755 339 855 355 896 342 C 937 329 984 326 1025 339 C 1066 352 1139 358 1164 392 C 1189 426 1298 497 1298 540;M 1171 540 C 1171 572 1130 624 1111 650 C 1092 676 1038 679 1008 689 C 978 699 936 716 906 706 C 876 696 803 694 784 668 C 765 642 733 572 733 540 C 733 508 778 448 797 422 C 816 396 883 407 913 397 C 943 387 973 396 1003 406 C 1033 416 1088 407 1107 433 C 1126 459 1171 508 1171 540;M 1396 540 C 1396 606 1352 743 1313 796 C 1274 849 1124 830 1061 850 C 998 870 930 847 867 827 C 804 807 680 825 641 772 C 602 719 468 606 468 540 C 468 474 554 326 593 273 C 632 220 800 260 863 240 C 926 220 994 220 1057 240 C 1120 260 1300 212 1339 265 C 1378 318 1396 474 1396 540"></animate>
		</path>
		<path d="M 1174 540 C 1174 572 1134 627 1116 653 C 1098 679 1039 681 1009 691 C 979 701 940 703 910 693 C 880 683 802 694 783 669 C 764 644 737 572 737 540 C 737 508 781 450 800 424 C 819 398 884 410 914 400 C 944 390 974 394 1004 404 C 1034 414 1123 382 1142 408 C 1161 434 1174 508 1174 540" fill="url(#lg-0.0005728506581863524)" opacity="0.43000000000000005">
			<animate attributeName="d" dur="7.692307692307692s" repeatCount="indefinite" keyTimes="0;0.3333333333333333;0.6666666666666666;1" calcmod="spline" keySplines="0.3 0.1 0.7 0.9;0.3 0.1 0.7 0.9;0.3 0.1 0.7 0.9" begin="-3.0769230769230766s" values="M 1174 540 C 1174 572 1134 627 1116 653 C 1098 679 1039 681 1009 691 C 979 701 940 703 910 693 C 880 683 802 694 783 669 C 764 644 737 572 737 540 C 737 508 781 450 800 424 C 819 398 884 410 914 400 C 944 390 974 394 1004 404 C 1034 414 1123 382 1142 408 C 1161 434 1174 508 1174 540;M 1394 540 C 1394 609 1369 752 1328 808 C 1287 864 1132 846 1066 867 C 1000 888 896 962 830 941 C 764 920 590 894 549 838 C 508 782 429 609 429 540 C 429 471 508 297 549 241 C 590 185 778 205 844 184 C 910 163 1025 116 1091 137 C 1157 158 1332 184 1373 240 C 1414 296 1394 471 1394 540;M 1481 540 C 1481 620 1410 768 1363 833 C 1316 898 1167 919 1091 944 C 1015 969 912 947 836 922 C 760 897 581 914 534 850 C 487 786 345 620 345 540 C 345 460 435 258 482 193 C 529 128 734 102 810 77 C 886 52 1013 116 1089 141 C 1165 166 1366 146 1413 211 C 1460 276 1481 460 1481 540;M 1174 540 C 1174 572 1134 627 1116 653 C 1098 679 1039 681 1009 691 C 979 701 940 703 910 693 C 880 683 802 694 783 669 C 764 644 737 572 737 540 C 737 508 781 450 800 424 C 819 398 884 410 914 400 C 944 390 974 394 1004 404 C 1034 414 1123 382 1142 408 C 1161 434 1174 508 1174 540"></animate>
		</path>
	</g>
</svg>
